<?xml version="1.0" standalone="no"?>
<!DOCTYPE svg PUBLIC "-//W3C//DTD SVG 20010904//EN"
 "http://www.w3.org/TR/2001/REC-SVG-20010904/DTD/svg10.dtd">
<svg version="1.0" xmlns="http://www.w3.org/2000/svg"
 width="1024.000000pt" height="1024.000000pt" viewBox="0 0 1024.000000 1024.000000"
 preserveAspectRatio="xMidYMid meet">

<g transform="translate(0.000000,1024.000000) scale(0.100000,-0.100000)"
fill="#000000" stroke="none">
<path d="M4792 7369 c-184 -86 -369 -173 -412 -193 l-79 -36 -97 -172 c-53
-95 -132 -235 -175 -312 -44 -76 -79 -143 -79 -149 0 -41 449 -688 526 -758
72 -65 646 -470 660 -465 16 6 505 358 597 429 32 25 94 92 138 148 124 159
429 621 429 649 0 6 -44 86 -98 178 -55 92 -135 232 -180 312 -74 133 -85 147
-119 159 -42 16 -525 242 -679 319 l-99 49 -333 -158z m588 -174 c39 -49 77
-90 83 -91 34 -3 38 -5 31 -16 -5 -7 -2 -9 9 -5 18 7 41 -15 29 -29 -4 -5 3 0
16 10 12 11 22 16 22 11 0 -4 6 -2 14 4 11 9 15 6 18 -14 5 -24 3 -25 -43 -25
-42 0 -51 4 -74 33 -15 17 -24 25 -19 17 19 -37 78 -100 93 -100 25 1 105 46
93 53 -5 4 -8 17 -5 28 5 19 7 19 15 5 5 -9 6 -21 2 -28 -5 -8 -2 -9 10 -5 10
4 22 7 27 7 6 0 7 5 3 12 -4 7 -3 8 4 4 6 -4 52 14 102 39 49 25 90 41 90 37
0 -11 -313 -162 -342 -165 -17 -1 -41 22 -105 103 -80 102 -177 235 -156 215
6 -5 43 -50 83 -100z m196 -107 c5 -7 3 -8 -6 -3 -7 4 -16 2 -21 -6 -7 -11 -9
-10 -9 4 0 19 25 23 36 5z m378 -213 c15 -82 29 -159 32 -170 3 -11 -15 3 -41
33 -26 28 -50 52 -55 52 -4 0 -10 -10 -14 -22 -3 -13 -26 -57 -51 -99 -126
-212 -362 -413 -667 -567 -114 -59 -307 -132 -346 -132 -6 0 48 31 121 68 242
124 429 262 603 444 94 99 186 227 222 310 23 52 26 48 -41 62 -27 7 -24 10
75 75 57 38 110 76 117 85 8 9 15 15 17 14 1 -2 14 -70 28 -153z m-1134 25
c91 -17 157 -55 231 -129 l68 -69 23 34 c37 57 131 121 210 145 95 29 201 23
277 -15 29 -15 51 -30 49 -34 -35 -70 -35 -70 -68 -52 -33 17 -139 27 -196 18
-106 -16 -213 -91 -269 -187 -16 -28 -33 -51 -36 -51 -4 0 -10 11 -13 25 -11
45 -120 149 -188 181 -56 26 -74 29 -163 29 -89 0 -106 -3 -150 -27 -147 -78
-207 -237 -155 -410 24 -81 70 -170 138 -268 69 -99 258 -314 371 -423 56 -53
97 -97 92 -97 -5 0 -40 21 -78 47 -293 200 -551 472 -628 662 -77 188 -47 376
78 502 103 102 257 147 407 119z m1105 -306 c42 -161 -6 -347 -133 -515 -65
-87 -210 -237 -301 -313 -91 -75 -244 -186 -257 -186 -5 0 39 48 97 108 338
343 456 540 447 746 -3 79 -2 83 28 121 17 22 44 59 59 83 33 50 36 47 60 -44z"/>
<path d="M4740 7423 c-130 -61 -469 -213 -478 -213 -6 0 -40 -60 -187 -327
-22 -40 -48 -82 -58 -93 -9 -11 -15 -20 -12 -20 3 0 -4 -18 -15 -40 -13 -25
-25 -38 -32 -34 -6 4 -8 3 -4 -4 3 -6 1 -22 -6 -37 -8 -19 -14 -22 -21 -13 -6
10 -8 9 -4 -3 3 -9 -6 -36 -20 -60 -14 -24 -29 -55 -34 -69 -6 -18 -7 -13 -4
20 3 47 39 130 56 130 5 0 9 6 9 13 0 6 14 37 30 67 62 115 102 195 92 185 -8
-9 -53 -88 -199 -355 -14 -25 -29 -50 -35 -57 -12 -14 60 -126 75 -116 6 4 7
1 3 -6 -5 -7 3 -28 17 -49 13 -20 34 -54 46 -75 13 -20 27 -34 33 -31 7 4 8 2
4 -4 -9 -15 63 -123 77 -115 6 3 7 1 3 -5 -4 -6 10 -37 31 -67 34 -52 38 -55
50 -39 11 15 15 16 26 4 7 -7 7 -10 1 -7 -7 4 -17 0 -24 -8 -10 -12 -8 -22 15
-56 31 -44 52 -62 42 -36 -4 10 -2 17 4 17 7 0 9 -10 5 -24 -4 -18 10 -44 68
-122 40 -55 84 -105 97 -112 24 -13 24 -13 -1 10 -15 13 -50 55 -79 93 -50 66
-52 70 -30 73 15 3 30 -4 42 -20 68 -87 116 -131 250 -226 215 -153 217 -154
217 -148 0 2 -78 61 -172 129 -95 69 -189 142 -209 164 -54 56 -247 329 -397
561 -73 112 -132 206 -132 209 0 3 15 30 34 61 19 32 102 181 186 332 83 151
157 280 163 286 7 7 86 46 177 87 231 106 417 195 405 195 -5 0 -53 -20 -105
-45z m-900 -923 c0 -5 -2 -10 -4 -10 -3 0 -8 5 -11 10 -3 6 -1 10 4 10 6 0 11
-4 11 -10z m269 -380 l23 -35 -26 30 c-14 17 -26 34 -26 39 0 11 0 11 29 -34z
m161 -237 c0 -8 -5 -11 -10 -8 -6 4 -8 11 -5 16 4 5 1 9 -4 9 -6 0 -11 5 -11
11 0 8 5 8 15 -1 8 -7 15 -19 15 -27z"/>
<path d="M4370 7300 c-8 -5 -10 -10 -5 -10 6 0 17 5 25 10 8 5 11 10 5 10 -5
0 -17 -5 -25 -10z"/>
<path d="M4207 7208 c-48 -78 -153 -276 -140 -263 13 12 163 285 157 285 -2 0
-10 -10 -17 -22z"/>
<path d="M6353 6468 c-15 -20 -25 -38 -20 -38 3 0 12 11 21 25 17 26 16 35 -1
13z"/>
<path d="M6185 6209 c-219 -333 -327 -473 -418 -542 -42 -31 -77 -60 -77 -63
0 -8 85 54 136 99 47 41 209 252 289 377 27 41 76 118 110 170 77 120 108 170
103 170 -2 0 -67 -95 -143 -211z"/>
<path d="M6214 6158 c-4 -7 -14 -24 -22 -38 -14 -24 -13 -24 3 -5 20 24 37 55
31 55 -3 0 -8 -6 -12 -12z"/>
<path d="M6151 6063 c-10 -26 -10 -27 4 -9 8 11 15 23 15 28 0 15 -7 8 -19
-19z"/>
<path d="M6078 5953 c-8 -10 -22 -30 -31 -45 -9 -16 -24 -39 -33 -53 -9 -14
-14 -25 -12 -25 3 0 26 32 52 70 45 68 54 88 24 53z"/>
<path d="M5979 5803 c-13 -16 -12 -17 4 -4 9 7 17 15 17 17 0 8 -8 3 -21 -13z"/>
<path d="M5949 5763 c-13 -16 -12 -17 4 -4 9 7 17 15 17 17 0 8 -8 3 -21 -13z"/>
<path d="M5580 5529 c-91 -67 -134 -103 -100 -83 11 6 141 98 199 141 2 2 2 5
0 7 -2 2 -47 -27 -99 -65z"/>
<path d="M4812 5424 c9 -10 32 -28 50 -38 39 -22 29 -11 -27 29 -23 17 -33 21
-23 9z"/>
<path d="M5380 5384 c-41 -31 -79 -60 -85 -66 -13 -15 101 65 140 97 52 43 23
26 -55 -31z"/>
<path d="M4910 5356 c0 -2 14 -14 30 -26 17 -12 30 -19 30 -16 0 2 -13 14 -30
26 -16 12 -30 19 -30 16z"/>
<path d="M3114 4795 c-9 -21 -2 -26 13 -10 8 9 9 16 3 20 -6 3 -13 -1 -16 -10z"/>
<path d="M3752 4765 c0 -16 2 -22 5 -12 2 9 2 23 0 30 -3 6 -5 -1 -5 -18z"/>
<path d="M6459 4773 c-13 -17 -13 -17 6 -3 11 8 22 16 24 17 2 2 0 3 -6 3 -6
0 -17 -8 -24 -17z"/>
<path d="M6740 4786 c0 -2 9 -6 20 -9 11 -3 18 -1 14 4 -5 9 -34 13 -34 5z"/>
<path d="M6944 4774 c-19 -15 -19 -15 1 -6 11 5 27 12 35 15 13 5 13 6 -1 6
-8 1 -24 -6 -35 -15z"/>
<path d="M6062 4768 c9 -7 19 -24 21 -38 3 -18 5 -14 6 13 1 32 -2 37 -21 37
-19 0 -20 -1 -6 -12z"/>
<path d="M3208 4743 c28 -2 76 -2 105 0 28 2 5 3 -53 3 -58 0 -81 -1 -52 -3z"/>
<path d="M3553 4743 c26 -2 67 -2 90 0 23 2 2 3 -48 3 -49 0 -68 -1 -42 -3z"/>
<path d="M3098 4712 l-5 -34 27 29 c28 29 32 45 6 24 -11 -9 -15 -9 -18 1 -3
7 -7 -2 -10 -20z"/>
<path d="M6792 4710 c0 -19 2 -27 5 -17 2 9 2 25 0 35 -3 9 -5 1 -5 -18z"/>
<path d="M6311 4714 c0 -11 3 -14 6 -6 3 7 2 16 -1 19 -3 4 -6 -2 -5 -13z"/>
<path d="M3372 4700 c0 -14 2 -19 5 -12 2 6 2 18 0 25 -3 6 -5 1 -5 -13z"/>
<path d="M4824 4530 c0 -107 2 -151 3 -97 2 53 2 141 0 195 -1 53 -3 9 -3 -98z"/>
<path d="M4460 4706 c0 -2 8 -10 18 -17 15 -13 16 -12 3 4 -13 16 -21 21 -21
13z"/>
<path d="M5639 4683 c-13 -16 -12 -17 4 -4 9 7 17 15 17 17 0 8 -8 3 -21 -13z"/>
<path d="M6432 4660 c0 -19 2 -27 5 -17 2 9 2 25 0 35 -3 9 -5 1 -5 -18z"/>
<path d="M6792 4610 c0 -19 2 -27 5 -17 2 9 2 25 0 35 -3 9 -5 1 -5 -18z"/>
<path d="M5283 4535 c0 -22 2 -30 4 -17 2 12 2 30 0 40 -3 9 -5 -1 -4 -23z"/>
<path d="M6313 4515 c0 -33 2 -45 4 -27 2 18 2 45 0 60 -2 15 -4 0 -4 -33z"/>
<path d="M6791 4544 c0 -11 3 -14 6 -6 3 7 2 16 -1 19 -3 4 -6 -2 -5 -13z"/>
<path d="M4551 4534 c0 -11 3 -14 6 -6 3 7 2 16 -1 19 -3 4 -6 -2 -5 -13z"/>
<path d="M3932 4520 c0 -14 2 -19 5 -12 2 6 2 18 0 25 -3 6 -5 1 -5 -13z"/>
<path d="M6648 4523 c7 -3 16 -2 19 1 4 3 -2 6 -13 5 -11 0 -14 -3 -6 -6z"/>
<path d="M6708 4523 c7 -3 16 -2 19 1 4 3 -2 6 -13 5 -11 0 -14 -3 -6 -6z"/>
<path d="M6758 4523 c7 -3 16 -2 19 1 4 3 -2 6 -13 5 -11 0 -14 -3 -6 -6z"/>
<path d="M3793 4470 c0 -30 2 -43 4 -27 2 15 2 39 0 55 -2 15 -4 2 -4 -28z"/>
<path d="M6488 4473 c17 -2 47 -2 65 0 17 2 3 4 -33 4 -36 0 -50 -2 -32 -4z"/>
<path d="M6633 4473 c26 -2 67 -2 90 0 23 2 2 3 -48 3 -49 0 -68 -1 -42 -3z"/>
<path d="M3372 4440 c0 -14 2 -19 5 -12 2 6 2 18 0 25 -3 6 -5 1 -5 -13z"/>
<path d="M3932 4435 c0 -16 2 -22 5 -12 2 9 2 23 0 30 -3 6 -5 -1 -5 -18z"/>
<path d="M6312 4425 c0 -16 2 -22 5 -12 2 9 2 23 0 30 -3 6 -5 -1 -5 -18z"/>
<path d="M3502 4420 c0 -14 2 -19 5 -12 2 6 2 18 0 25 -3 6 -5 1 -5 -13z"/>
<path d="M4552 4400 c0 -14 2 -19 5 -12 2 6 2 18 0 25 -3 6 -5 1 -5 -13z"/>
<path d="M4422 4390 c0 -14 2 -19 5 -12 2 6 2 18 0 25 -3 6 -5 1 -5 -13z"/>
<path d="M5212 4380 c0 -14 2 -19 5 -12 2 6 2 18 0 25 -3 6 -5 1 -5 -13z"/>
<path d="M6433 4320 c0 -47 2 -66 4 -42 2 23 2 61 0 85 -2 23 -4 4 -4 -43z"/>
<path d="M6790 4283 c-3 -67 -1 -119 3 -114 4 4 6 59 5 122 l-3 114 -5 -122z"/>
<path d="M4703 4355 c0 -22 2 -30 4 -17 2 12 2 30 0 40 -3 9 -5 -1 -4 -23z"/>
<path d="M5272 4350 c0 -14 2 -19 5 -12 2 6 2 18 0 25 -3 6 -5 1 -5 -13z"/>
<path d="M6311 4354 c0 -11 3 -14 6 -6 3 7 2 16 -1 19 -3 4 -6 -2 -5 -13z"/>
<path d="M3810 4345 c0 -5 5 -17 10 -25 5 -8 10 -10 10 -5 0 6 -5 17 -10 25
-5 8 -10 11 -10 5z"/>
<path d="M3950 4335 c0 -5 5 -17 10 -25 5 -8 10 -10 10 -5 0 6 -5 17 -10 25
-5 8 -10 11 -10 5z"/>
<path d="M4508 4294 c-15 -24 -25 -44 -23 -44 7 0 58 80 54 84 -2 2 -16 -16
-31 -40z"/>
<path d="M4830 4314 c0 -28 54 -110 82 -124 22 -11 21 -10 -3 12 -36 32 -49
52 -65 95 -8 24 -13 30 -14 17z"/>
<path d="M6313 4250 c0 -47 2 -66 4 -42 2 23 2 61 0 85 -2 23 -4 4 -4 -43z"/>
<path d="M3503 4245 c0 -44 2 -61 4 -37 2 23 2 59 0 80 -2 20 -4 1 -4 -43z"/>
<path d="M5261 4308 c0 -9 -4 -25 -7 -35 -5 -17 -5 -17 6 0 6 10 9 25 7 35 -4
15 -5 15 -6 0z"/>
<path d="M4715 4286 c12 -58 83 -133 140 -151 11 -3 7 1 -10 11 -50 27 -86 66
-112 119 -17 34 -23 41 -18 21z"/>
<path d="M5480 4291 c5 -11 15 -23 21 -27 6 -3 3 5 -6 20 -20 30 -30 35 -15 7z"/>
<path d="M3372 4270 c0 -19 2 -27 5 -17 2 9 2 25 0 35 -3 9 -5 1 -5 -18z"/>
<path d="M3980 4271 c5 -11 15 -23 21 -27 6 -3 3 5 -6 20 -20 30 -30 35 -15 7z"/>
<path d="M3859 4254 c13 -28 63 -69 112 -94 61 -32 58 -23 -6 16 -33 19 -72
50 -88 67 -18 21 -24 25 -18 11z"/>
<path d="M6060 4227 l-34 -42 32 30 32 29 -5 -34 c-6 -39 7 -16 19 33 9 37 -3
33 -44 -16z"/>
<path d="M5530 4225 c13 -14 26 -25 28 -25 3 0 -5 11 -18 25 -13 14 -26 25
-28 25 -3 0 5 -11 18 -25z"/>
<path d="M4440 4209 l-35 -30 38 26 c33 24 43 35 34 35 -1 0 -18 -14 -37 -31z"/>
<path d="M5195 4189 c-25 -26 -32 -37 -18 -30 18 9 72 71 61 71 -2 0 -21 -19
-43 -41z"/>
<path d="M6922 4205 c0 -16 2 -22 5 -12 2 9 2 23 0 30 -3 6 -5 -1 -5 -18z"/>
<path d="M3372 4195 c0 -16 2 -22 5 -12 2 9 2 23 0 30 -3 6 -5 -1 -5 -18z"/>
<path d="M5570 4196 c0 -2 8 -10 18 -17 15 -13 16 -12 3 4 -13 16 -21 21 -21
13z"/>
<path d="M4270 4170 c-8 -5 -10 -10 -5 -10 6 0 17 5 25 10 8 5 11 10 5 10 -5
0 -17 -5 -25 -10z"/>
<path d="M4374 4164 c-18 -14 -18 -15 4 -4 12 6 22 13 22 15 0 8 -5 6 -26 -11z"/>
<path d="M4968 4163 c7 -3 16 -2 19 1 4 3 -2 6 -13 5 -11 0 -14 -3 -6 -6z"/>
<path d="M5058 4163 c7 -3 16 -2 19 1 4 3 -2 6 -13 5 -11 0 -14 -3 -6 -6z"/>
<path d="M6045 4150 c-3 -5 -2 -10 4 -10 5 0 13 5 16 10 3 6 2 10 -4 10 -5 0
-13 -4 -16 -10z"/>
<path d="M4320 4140 c-8 -5 -10 -10 -5 -10 6 0 17 5 25 10 8 5 11 10 5 10 -5
0 -17 -5 -25 -10z"/>
<path d="M5660 4140 c8 -5 22 -9 30 -9 10 0 8 3 -5 9 -27 12 -43 12 -25 0z"/>
<path d="M6756 4135 c-11 -8 -15 -15 -9 -15 6 0 16 7 23 15 16 19 11 19 -14 0z"/>
<path d="M3328 4129 c-8 -5 15 -8 57 -8 76 1 77 5 3 12 -25 2 -52 1 -60 -4z"/>
<path d="M3513 4123 c9 -2 25 -2 35 0 9 3 1 5 -18 5 -19 0 -27 -2 -17 -5z"/>
<path d="M4068 4123 c7 -3 16 -2 19 1 4 3 -2 6 -13 5 -11 0 -14 -3 -6 -6z"/>
<path d="M4888 4123 c7 -3 16 -2 19 1 4 3 -2 6 -13 5 -11 0 -14 -3 -6 -6z"/>
<path d="M5718 4123 c7 -3 16 -2 19 1 4 3 -2 6 -13 5 -11 0 -14 -3 -6 -6z"/>
<path d="M6488 4123 c7 -3 16 -2 19 1 4 3 -2 6 -13 5 -11 0 -14 -3 -6 -6z"/>
<path d="M6968 4123 c7 -3 16 -2 19 1 4 3 -2 6 -13 5 -11 0 -14 -3 -6 -6z"/>
<path d="M4123 4113 c9 -2 23 -2 30 0 6 3 -1 5 -18 5 -16 0 -22 -2 -12 -5z"/>
<path d="M4928 4113 c6 -2 18 -2 25 0 6 3 1 5 -13 5 -14 0 -19 -2 -12 -5z"/>
<path d="M5048 4113 c7 -3 16 -2 19 1 4 3 -2 6 -13 5 -11 0 -14 -3 -6 -6z"/>
<path d="M5768 4113 c7 -3 16 -2 19 1 4 3 -2 6 -13 5 -11 0 -14 -3 -6 -6z"/>
<path d="M5928 4113 c6 -2 18 -2 25 0 6 3 1 5 -13 5 -14 0 -19 -2 -12 -5z"/>
<path d="M3172 3930 c-51 -5 -96 -11 -99 -14 -4 -3 905 -5 2018 -5 1443 1
2013 4 1984 12 -48 12 -3756 19 -3903 7z"/>
<path d="M4275 3740 c-68 -27 -115 -68 -150 -131 -26 -47 -30 -64 -30 -134 0
-71 3 -86 31 -135 53 -93 161 -150 285 -150 139 0 271 88 304 204 40 139 -22
272 -155 335 -75 35 -211 40 -285 11z m220 -44 c82 -44 126 -197 91 -319 -28
-96 -87 -147 -171 -147 -64 0 -109 22 -143 69 -41 56 -55 117 -50 208 11 185
129 266 273 189z"/>
<path d="M5700 3751 c-87 -29 -163 -89 -194 -156 -27 -56 -32 -151 -12 -213
76 -229 467 -259 593 -45 37 63 44 179 16 244 -29 65 -76 114 -139 145 -45 22
-72 27 -147 30 -51 2 -103 0 -117 -5z m151 -32 c44 -15 85 -54 112 -104 16
-30 22 -63 25 -135 3 -89 2 -99 -25 -150 -37 -73 -79 -100 -151 -100 -115 0
-187 81 -199 227 -11 128 38 227 129 259 43 16 67 17 109 3z"/>
<path d="M3405 3738 c44 -23 45 -32 45 -265 l0 -224 -25 -24 -24 -25 173 0
c193 0 241 9 319 61 86 57 131 171 108 273 -23 102 -99 176 -208 202 -74 17
-419 19 -388 2z m351 -41 c40 -21 80 -65 98 -109 19 -44 21 -169 5 -219 -30
-88 -102 -138 -198 -139 -92 0 -91 -3 -91 255 0 122 3 225 8 229 11 13 147 -1
178 -17z"/>
<path d="M4858 3499 l-3 -251 -30 -24 -30 -24 89 0 88 0 -31 29 -31 29 0 166
c0 91 2 166 5 166 3 0 91 -88 196 -195 142 -144 198 -195 215 -195 l24 0 0
255 0 255 33 20 32 20 -105 0 c-97 -1 -103 -2 -74 -14 17 -8 34 -22 38 -32 10
-27 17 -324 8 -324 -5 0 -89 83 -186 185 -149 155 -182 185 -206 185 l-29 0
-3 -251z"/>
<path d="M6205 3738 c43 -23 45 -32 45 -261 0 -227 -4 -251 -43 -267 -15 -6
18 -9 98 -9 l120 -1 -27 23 c-24 19 -27 30 -29 87 -3 125 -2 130 27 130 41 0
61 -16 118 -98 90 -128 101 -135 206 -140 50 -3 90 -2 90 1 0 3 -19 15 -43 25
-31 14 -66 46 -120 110 -43 50 -86 94 -97 97 -29 9 -24 22 11 30 16 4 45 22
64 40 82 82 39 208 -81 235 -59 14 -364 12 -339 -2z m257 -28 c52 -15 78 -51
78 -111 0 -26 -5 -59 -11 -73 -15 -32 -66 -56 -118 -56 l-41 0 0 104 c0 57 -3
111 -6 119 -9 25 40 33 98 17z"/>
</g>
</svg>
